<svg
  xmlns="http://www.w3.org/2000/svg"
  width="24"
  height="26"
  viewBox="0 0 24 26"
  fill="none"
>
  <g clip-path="url(#clip0_5221_97698)">
    <path
      d="M13.9428 0H6.10616C5.32082 0 4.56764 0.340039 4.01232 0.945313C3.457 1.55059 3.14502 2.37151 3.14502 3.2275V22.5925C3.14502 23.4485 3.457 24.2694 4.01232 24.8747C4.56764 25.48 5.32082 25.82 6.10616 25.82H17.9507C18.7361 25.82 19.4892 25.48 20.0446 24.8747C20.5999 24.2694 20.9119 23.4485 20.9119 22.5925V7.59592C20.9118 7.16796 20.7557 6.75757 20.4781 6.455L14.9896 0.472829C14.712 0.170171 14.3355 9.13986e-05 13.9428 0ZM14.2493 5.64812V2.42062L18.691 7.26188H15.7299C15.3372 7.26188 14.9606 7.09186 14.6829 6.78922C14.4053 6.48658 14.2493 6.07612 14.2493 5.64812ZM12.7687 11.2962V13.7169H14.9896C15.1859 13.7169 15.3742 13.8019 15.513 13.9532C15.6519 14.1045 15.7299 14.3098 15.7299 14.5238C15.7299 14.7377 15.6519 14.943 15.513 15.0943C15.3742 15.2456 15.1859 15.3306 14.9896 15.3306H12.7687V17.7512C12.7687 17.9652 12.6907 18.1705 12.5519 18.3218C12.4131 18.4731 12.2248 18.5581 12.0284 18.5581C11.8321 18.5581 11.6438 18.4731 11.505 18.3218C11.3661 18.1705 11.2882 17.9652 11.2882 17.7512V15.3306H9.0673C8.87096 15.3306 8.68267 15.2456 8.54384 15.0943C8.40501 14.943 8.32701 14.7377 8.32701 14.5238C8.32701 14.3098 8.40501 14.1045 8.54384 13.9532C8.68267 13.8019 8.87096 13.7169 9.0673 13.7169H11.2882V11.2962C11.2882 11.0823 11.3661 10.877 11.505 10.7257C11.6438 10.5744 11.8321 10.4894 12.0284 10.4894C12.2248 10.4894 12.4131 10.5744 12.5519 10.7257C12.6907 10.877 12.7687 11.0823 12.7687 11.2962Z"
      fill="#5B93FF"
    />
  </g>
  <defs>
    <clipPath id="clip0_5221_97698">
      <rect
        width="23.6891"
        height="25.82"
        fill="white"
        transform="translate(0.183838)"
      />
    </clipPath>
  </defs>
</svg>
