<svg
    xmlns="http://www.w3.org/2000/svg"
    width="25"
    height="26"
    viewBox="0 0 25 26"
    fill="none"
  >
    <g clip-path="url(#clip0_5221_97696)">
      <path
        d="M14.0533 0H6.11377C5.31812 0 4.55506 0.340039 3.99245 0.945313C3.42984 1.55059 3.11377 2.37151 3.11377 3.2275V22.5925C3.11377 23.4485 3.42984 24.2694 3.99245 24.8747C4.55506 25.48 5.31812 25.82 6.11377 25.82H18.1138C18.9094 25.82 19.6725 25.48 20.2351 24.8747C20.7977 24.2694 21.1138 23.4485 21.1138 22.5925V7.59592C21.1137 7.16796 20.9556 6.75757 20.6743 6.455L15.1138 0.472829C14.8325 0.170171 14.4511 9.13986e-05 14.0533 0ZM14.3638 5.64812V2.42062L18.8638 7.26188H15.8638C15.4659 7.26188 15.0844 7.09186 14.8031 6.78922C14.5218 6.48658 14.3638 6.07612 14.3638 5.64812ZM9.11377 13.7169H15.1138C15.3127 13.7169 15.5034 13.8019 15.6441 13.9532C15.7848 14.1045 15.8638 14.3098 15.8638 14.5238C15.8638 14.7377 15.7848 14.943 15.6441 15.0943C15.5034 15.2456 15.3127 15.3306 15.1138 15.3306H9.11377C8.91486 15.3306 8.72409 15.2456 8.58344 15.0943C8.44279 14.943 8.36377 14.7377 8.36377 14.5238C8.36377 14.3098 8.44279 14.1045 8.58344 13.9532C8.72409 13.8019 8.91486 13.7169 9.11377 13.7169Z"
        fill="#FFCA3E"
      />
    </g>
    <defs>
      <clipPath id="clip0_5221_97696">
        <rect
width="24"
height="25.82"
fill="white"
transform="translate(0.11377)"
        />
      </clipPath>
    </defs>
  </svg>
