<svg
              xmlns="http://www.w3.org/2000/svg"
              width="25"
              height="26"
              viewBox="0 0 25 26"
              fill="none"
            >
              <g clip-path="url(#clip0_5221_97692)">
                <path
                  d="M1.45806 1.61328C1.26172 1.61328 1.07343 1.69829 0.934598 1.84961C0.795768 2.00093 0.717773 2.20616 0.717773 2.42016C0.717773 2.63415 0.795768 2.83938 0.934598 2.9907C1.07343 3.14202 1.26172 3.22703 1.45806 3.22703H3.10149L3.6952 5.82033L5.91309 18.7061C5.94485 18.891 6.03488 19.058 6.16762 19.1782C6.30036 19.2985 6.46747 19.3644 6.64005 19.3645H8.12062C7.33528 19.3645 6.5821 19.7046 6.02678 20.3098C5.47146 20.9151 5.15948 21.736 5.15948 22.592C5.15948 23.448 5.47146 24.2689 6.02678 24.8742C6.5821 25.4795 7.33528 25.8195 8.12062 25.8195C8.90597 25.8195 9.65914 25.4795 10.2145 24.8742C10.7698 24.2689 11.0818 23.448 11.0818 22.592C11.0818 21.736 10.7698 20.9151 10.2145 20.3098C9.65914 19.7046 8.90597 19.3645 8.12062 19.3645H18.4846C17.6993 19.3645 16.9461 19.7046 16.3908 20.3098C15.8355 20.9151 15.5235 21.736 15.5235 22.592C15.5235 23.448 15.8355 24.2689 16.3908 24.8742C16.9461 25.4795 17.6993 25.8195 18.4846 25.8195C19.27 25.8195 20.0231 25.4795 20.5785 24.8742C21.1338 24.2689 21.4458 23.448 21.4458 22.592C21.4458 21.736 21.1338 20.9151 20.5785 20.3098C20.0231 19.7046 19.27 19.3645 18.4846 19.3645H19.9652C20.1378 19.3644 20.3049 19.2985 20.4376 19.1782C20.5704 19.058 20.6604 18.891 20.6921 18.7061L22.913 5.79612C22.933 5.67967 22.9292 5.55984 22.9019 5.44516C22.8747 5.33047 22.8246 5.22375 22.7552 5.13255C22.6858 5.04136 22.5988 4.96794 22.5004 4.91752C22.4021 4.86709 22.2947 4.84089 22.186 4.84078H4.99662L4.39699 2.22489C4.35703 2.05026 4.26464 1.8952 4.13453 1.78438C4.00442 1.67356 3.84404 1.61333 3.67891 1.61328H1.45806ZM9.60119 22.592C9.60119 23.02 9.4452 23.4305 9.16754 23.7331C8.88988 24.0358 8.51329 24.2058 8.12062 24.2058C7.72795 24.2058 7.35136 24.0358 7.0737 23.7331C6.79604 23.4305 6.64005 23.02 6.64005 22.592C6.64005 22.164 6.79604 21.7536 7.0737 21.4509C7.35136 21.1483 7.72795 20.9783 8.12062 20.9783C8.51329 20.9783 8.88988 21.1483 9.16754 21.4509C9.4452 21.7536 9.60119 22.164 9.60119 22.592ZM19.9652 22.592C19.9652 23.02 19.8092 23.4305 19.5315 23.7331C19.2539 24.0358 18.8773 24.2058 18.4846 24.2058C18.0919 24.2058 17.7154 24.0358 17.4377 23.7331C17.16 23.4305 17.004 23.02 17.004 22.592C17.004 22.164 17.16 21.7536 17.4377 21.4509C17.7154 21.1483 18.0919 20.9783 18.4846 20.9783C18.8773 20.9783 19.2539 21.1483 19.5315 21.4509C19.8092 21.7536 19.9652 22.164 19.9652 22.592ZM10.3415 11.2958H16.2638C16.4601 11.2958 16.6484 11.3808 16.7872 11.5321C16.9261 11.6834 17.004 11.8887 17.004 12.1027C17.004 12.3167 16.9261 12.5219 16.7872 12.6732C16.6484 12.8245 16.4601 12.9095 16.2638 12.9095H10.3415C10.1451 12.9095 9.95685 12.8245 9.81802 12.6732C9.67919 12.5219 9.60119 12.3167 9.60119 12.1027C9.60119 11.8887 9.67919 11.6834 9.81802 11.5321C9.95685 11.3808 10.1451 11.2958 10.3415 11.2958Z"
                  fill="#605BFF"
                />
              </g>
              <defs>
                <clipPath id="clip0_5221_97692">
                  <rect
                    width="23.6891"
                    height="25.82"
                    fill="white"
                    transform="translate(0.717773)"
                  />
                </clipPath>
              </defs>
            </svg>
