<svg
              xmlns="http://www.w3.org/2000/svg"
              width="25"
              height="26"
              viewBox="0 0 25 26"
              fill="none"
            >
              <g clip-path="url(#clip0_5221_97675)">
                <path
                  d="M1.71338 1.61328C1.51447 1.61328 1.3237 1.69829 1.18305 1.84961C1.0424 2.00093 0.963379 2.20616 0.963379 2.42016C0.963379 2.63415 1.0424 2.83938 1.18305 2.9907C1.3237 3.14202 1.51447 3.22703 1.71338 3.22703H3.37838L3.97988 5.82033L6.22688 18.7061C6.25905 18.891 6.35026 19.058 6.48474 19.1782C6.61923 19.2985 6.78853 19.3644 6.96338 19.3645H8.46338C7.66773 19.3645 6.90467 19.7046 6.34206 20.3098C5.77945 20.9151 5.46338 21.736 5.46338 22.592C5.46338 23.448 5.77945 24.2689 6.34206 24.8742C6.90467 25.4795 7.66773 25.8195 8.46338 25.8195C9.25903 25.8195 10.0221 25.4795 10.5847 24.8742C11.1473 24.2689 11.4634 23.448 11.4634 22.592C11.4634 21.736 11.1473 20.9151 10.5847 20.3098C10.0221 19.7046 9.25903 19.3645 8.46338 19.3645H18.9634C18.1677 19.3645 17.4047 19.7046 16.8421 20.3098C16.2794 20.9151 15.9634 21.736 15.9634 22.592C15.9634 23.448 16.2794 24.2689 16.8421 24.8742C17.4047 25.4795 18.1677 25.8195 18.9634 25.8195C19.759 25.8195 20.5221 25.4795 21.0847 24.8742C21.6473 24.2689 21.9634 23.448 21.9634 22.592C21.9634 21.736 21.6473 20.9151 21.0847 20.3098C20.5221 19.7046 19.759 19.3645 18.9634 19.3645H20.4634C20.6382 19.3644 20.8075 19.2985 20.942 19.1782C21.0765 19.058 21.1677 18.891 21.1999 18.7061L23.4499 5.79612C23.4701 5.67967 23.4663 5.55984 23.4387 5.44516C23.411 5.33047 23.3603 5.22375 23.29 5.13255C23.2197 5.04136 23.1316 4.96794 23.0319 4.91752C22.9323 4.86709 22.8235 4.84089 22.7134 4.84078H5.29838L4.69088 2.22489C4.65039 2.05026 4.5568 1.8952 4.42498 1.78438C4.29315 1.67356 4.13068 1.61333 3.96338 1.61328H1.71338ZM9.96338 22.592C9.96338 23.02 9.80534 23.4305 9.52404 23.7331C9.24273 24.0358 8.8612 24.2058 8.46338 24.2058C8.06555 24.2058 7.68402 24.0358 7.40272 23.7331C7.12141 23.4305 6.96338 23.02 6.96338 22.592C6.96338 22.164 7.12141 21.7536 7.40272 21.4509C7.68402 21.1483 8.06555 20.9783 8.46338 20.9783C8.8612 20.9783 9.24273 21.1483 9.52404 21.4509C9.80534 21.7536 9.96338 22.164 9.96338 22.592ZM20.4634 22.592C20.4634 23.02 20.3053 23.4305 20.024 23.7331C19.7427 24.0358 19.3612 24.2058 18.9634 24.2058C18.5656 24.2058 18.184 24.0358 17.9027 23.7331C17.6214 23.4305 17.4634 23.02 17.4634 22.592C17.4634 22.164 17.6214 21.7536 17.9027 21.4509C18.184 21.1483 18.5656 20.9783 18.9634 20.9783C19.3612 20.9783 19.7427 21.1483 20.024 21.4509C20.3053 21.7536 20.4634 22.164 20.4634 22.592ZM14.4634 8.87516V11.2958H16.7134C16.9123 11.2958 17.1031 11.3808 17.2437 11.5321C17.3844 11.6834 17.4634 11.8887 17.4634 12.1027C17.4634 12.3167 17.3844 12.5219 17.2437 12.6732C17.1031 12.8245 16.9123 12.9095 16.7134 12.9095H14.4634V15.3302C14.4634 15.5442 14.3844 15.7494 14.2437 15.9007C14.1031 16.052 13.9123 16.137 13.7134 16.137C13.5145 16.137 13.3237 16.052 13.183 15.9007C13.0424 15.7494 12.9634 15.5442 12.9634 15.3302V12.9095H10.7134C10.5145 12.9095 10.3237 12.8245 10.183 12.6732C10.0424 12.5219 9.96338 12.3167 9.96338 12.1027C9.96338 11.8887 10.0424 11.6834 10.183 11.5321C10.3237 11.3808 10.5145 11.2958 10.7134 11.2958H12.9634V8.87516C12.9634 8.66116 13.0424 8.45593 13.183 8.30461C13.3237 8.15329 13.5145 8.06828 13.7134 8.06828C13.9123 8.06828 14.1031 8.15329 14.2437 8.30461C14.3844 8.45593 14.4634 8.66116 14.4634 8.87516Z"
                  fill="#FF8F6B"
                />
              </g>
              <defs>
                <clipPath id="clip0_5221_97675">
                  <rect
                    width="24"
                    height="25.82"
                    fill="white"
                    transform="translate(0.963379)"
                  />
                </clipPath>
              </defs>
            </svg>
