<svg
  width="20"
  height="20"
  viewBox="0 0 20 20"
  fill="none"
  xmlns="http://www.w3.org/2000/svg"
>
  <rect width="20" height="20" rx="10" fill="#FF7A00" />
  <path
    d="M9.97841 12.0298L7.14125 9.73356C7.07443 9.68905 7.01905 9.62567 6.98058 9.54968C6.94211 9.47369 6.92188 9.38771 6.92188 9.30021C6.92188 9.21272 6.94211 9.12674 6.98058 9.05074C7.01905 8.97475 7.07443 8.91137 7.14125 8.86686L9.97841 6.5692C10.046 6.52436 10.123 6.50049 10.2015 6.50001C10.2799 6.49953 10.3571 6.52246 10.4252 6.56647C10.4932 6.61048 10.5497 6.674 10.589 6.75059C10.6282 6.82718 10.6488 6.9141 10.6486 7.00255V7.89935C11.5802 7.89935 14.3751 7.89935 14.9962 13.5C13.4435 10.3496 10.6486 10.6997 10.6486 10.6997V11.5965C10.6486 11.9885 10.2722 12.2252 9.97841 12.0305V12.0298Z"
    fill="white"
  />
  <path
    d="M8.24996 6.70489C8.27423 6.74192 8.29179 6.78398 8.30162 6.82867C8.31145 6.87336 8.31336 6.91979 8.30724 6.96531C8.30113 7.01083 8.2871 7.05455 8.26598 7.09395C8.24485 7.13336 8.21704 7.16768 8.18412 7.19494L5.6923 9.26158C5.6839 9.26861 5.6752 9.27515 5.66621 9.28119C5.65271 9.29033 5.64153 9.30327 5.63377 9.31872C5.62602 9.33418 5.62194 9.35164 5.62194 9.3694C5.62194 9.38716 5.62602 9.40461 5.63377 9.42007C5.64153 9.43553 5.65271 9.44846 5.66621 9.45761C5.67519 9.46364 5.6839 9.47019 5.6923 9.47721L8.18412 11.5452C8.21777 11.5721 8.24633 11.6063 8.26813 11.6458C8.28993 11.6853 8.30453 11.7293 8.31109 11.7752C8.31764 11.8211 8.31601 11.868 8.3063 11.9132C8.29659 11.9584 8.27898 12.0009 8.25452 12.0384C8.23005 12.0758 8.19921 12.1074 8.1638 12.1312C8.12839 12.1551 8.08911 12.1708 8.04827 12.1773C8.00743 12.1839 7.96584 12.1812 7.92593 12.1694C7.88602 12.1577 7.84858 12.1371 7.81582 12.1088L5.33517 10.0513C5.23261 9.97912 5.14804 9.87873 5.0894 9.75956C5.03077 9.64039 5 9.50637 5 9.3701C5 9.23383 5.03077 9.0998 5.0894 8.98063C5.14804 8.86146 5.23261 8.76107 5.33517 8.68892L7.81582 6.63068C7.88212 6.57564 7.96511 6.55254 8.04652 6.56646C8.12793 6.58037 8.20111 6.63017 8.24996 6.70489Z"
    fill="white"
  />
</svg>
