<svg width="20" height="20" viewBox="0 0 17 16" fill="none" xmlns="http://www.w3.org/2000/svg">
  <rect x="0.5" width="16" height="16" rx="8" fill="#FF7A00" />
  <path
    d="M8.48231 10.0298L5.64516 7.73356C5.57833 7.68905 5.52295 7.62567 5.48448 7.54968C5.44601 7.47369 5.42578 7.38771 5.42578 7.30021C5.42578 7.21272 5.44601 7.12674 5.48448 7.05074C5.52295 6.97475 5.57833 6.91137 5.64516 6.86686L8.48231 4.5692C8.54994 4.52436 8.6269 4.50049 8.70536 4.50001C8.78382 4.49953 8.861 4.52246 8.92906 4.56647C8.99712 4.61048 9.05364 4.674 9.09287 4.75059C9.13211 4.82718 9.15267 4.9141 9.15247 5.00255V5.89935C10.0841 5.89935 12.879 5.89935 13.5001 11.5C11.9474 8.34963 9.15247 8.69968 9.15247 8.69968V9.59648C9.15247 9.98852 8.77609 10.2252 8.48231 10.0305V10.0298Z"
    fill="white" />
  <path
    d="M6.74996 4.70489C6.77423 4.74192 6.79179 4.78398 6.80162 4.82867C6.81145 4.87336 6.81336 4.91979 6.80724 4.96531C6.80113 5.01083 6.7871 5.05455 6.76598 5.09395C6.74485 5.13336 6.71704 5.16768 6.68412 5.19494L4.1923 7.26158C4.1839 7.26861 4.1752 7.27515 4.16621 7.28119C4.15271 7.29033 4.14153 7.30327 4.13377 7.31872C4.12602 7.33418 4.12194 7.35164 4.12194 7.3694C4.12194 7.38716 4.12602 7.40461 4.13377 7.42007C4.14153 7.43553 4.15271 7.44846 4.16621 7.45761C4.17519 7.46364 4.1839 7.47019 4.1923 7.47721L6.68412 9.54525C6.71777 9.57215 6.74633 9.60633 6.76813 9.64581C6.78993 9.68529 6.80453 9.72927 6.81109 9.77518C6.81764 9.82108 6.81601 9.86801 6.8063 9.9132C6.79659 9.95839 6.77898 10.0009 6.75452 10.0384C6.73005 10.0758 6.69921 10.1074 6.6638 10.1312C6.62839 10.1551 6.58911 10.1708 6.54827 10.1773C6.50743 10.1839 6.46584 10.1812 6.42593 10.1694C6.38602 10.1577 6.34858 10.1371 6.31582 10.1088L3.83517 8.05128C3.73261 7.97912 3.64804 7.87873 3.5894 7.75956C3.53077 7.64039 3.5 7.50637 3.5 7.3701C3.5 7.23383 3.53077 7.0998 3.5894 6.98063C3.64804 6.86146 3.73261 6.76107 3.83517 6.68892L6.31582 4.63068C6.38212 4.57564 6.46511 4.55254 6.54652 4.56646C6.62793 4.58037 6.70111 4.63017 6.74996 4.70489Z"
    fill="white" />
</svg>
