<svg
  class="hover-cursor-pointer"
  width="22"
  height="22"
  viewBox="0 0 17 16"
  fill="none"
  xmlns="http://www.w3.org/2000/svg"
>
  <g clip-path="url(#clip0_3272_44441)">
    <path
      d="M16.5 8C16.5 10.1217 15.6571 12.1566 14.1569 13.6569C12.6566 15.1571 10.6217 16 8.5 16C6.37827 16 4.34344 15.1571 2.84315 13.6569C1.34285 12.1566 0.5 10.1217 0.5 8C0.5 5.87827 1.34285 3.84344 2.84315 2.34315C4.34344 0.842855 6.37827 0 8.5 0C10.6217 0 12.6566 0.842855 14.1569 2.34315C15.6571 3.84344 16.5 5.87827 16.5 8ZM5.854 4.646C5.76011 4.55211 5.63278 4.49937 5.5 4.49937C5.36722 4.49937 5.23989 4.55211 5.146 4.646C5.05211 4.73989 4.99937 4.86722 4.99937 5C4.99937 5.13278 5.05211 5.26011 5.146 5.354L7.793 8L5.146 10.646C5.09951 10.6925 5.06264 10.7477 5.03748 10.8084C5.01232 10.8692 4.99937 10.9343 4.99937 11C4.99937 11.0657 5.01232 11.1308 5.03748 11.1916C5.06264 11.2523 5.09951 11.3075 5.146 11.354C5.23989 11.4479 5.36722 11.5006 5.5 11.5006C5.56574 11.5006 5.63084 11.4877 5.69158 11.4625C5.75232 11.4374 5.80751 11.4005 5.854 11.354L8.5 8.707L11.146 11.354C11.1925 11.4005 11.2477 11.4374 11.3084 11.4625C11.3692 11.4877 11.4343 11.5006 11.5 11.5006C11.5657 11.5006 11.6308 11.4877 11.6916 11.4625C11.7523 11.4374 11.8075 11.4005 11.854 11.354C11.9005 11.3075 11.9374 11.2523 11.9625 11.1916C11.9877 11.1308 12.0006 11.0657 12.0006 11C12.0006 10.9343 11.9877 10.8692 11.9625 10.8084C11.9374 10.7477 11.9005 10.6925 11.854 10.646L9.207 8L11.854 5.354C11.9005 5.30751 11.9374 5.25232 11.9625 5.19158C11.9877 5.13084 12.0006 5.06574 12.0006 5C12.0006 4.93426 11.9877 4.86916 11.9625 4.80842C11.9374 4.74768 11.9005 4.69249 11.854 4.646C11.8075 4.59951 11.7523 4.56264 11.6916 4.53748C11.6308 4.51232 11.5657 4.49937 11.5 4.49937C11.4343 4.49937 11.3692 4.51232 11.3084 4.53748C11.2477 4.56264 11.1925 4.59951 11.146 4.646L8.5 7.293L5.854 4.646Z"
      fill="#FF7A00"
    />
  </g>
  <defs>
    <clipPath id="clip0_3272_44441">
      <rect
        class="hover-cursor-pointer"
        width="16"
        height="16"
        fill="white"
        transform="translate(0.5)"
      />
    </clipPath>
  </defs>
</svg>
