<svg xmlns="http://www.w3.org/2000/svg" width="17" height="16" viewBox="0 0 17 16" fill="none">
  <path d="M8.5 0C4.08214 0 0.5 3.58214 0.5 8C0.5 12.4179 4.08214 16 8.5 16C12.9179 16 16.5 12.4179 16.5 8C16.5 3.58214 12.9179 0 8.5 0ZM11.9554 5.3875L8.19464 10.6018C8.14208 10.6751 8.07279 10.7349 7.99251 10.7762C7.91224 10.8174 7.82329 10.8389 7.73304 10.8389C7.64279 10.8389 7.55384 10.8174 7.47356 10.7762C7.39328 10.7349 7.32399 10.6751 7.27143 10.6018L5.04464 7.51607C4.97679 7.42143 5.04464 7.28929 5.16071 7.28929H5.99821C6.18036 7.28929 6.35357 7.37679 6.46071 7.52679L7.73214 9.29107L10.5393 5.39821C10.6464 5.25 10.8179 5.16071 11.0018 5.16071H11.8393C11.9554 5.16071 12.0232 5.29286 11.9554 5.3875Z" fill="#FF7A00"/>
</svg>
