<svg xmlns="http://www.w3.org/2000/svg" width="21" height="20" viewBox="0 0 21 20" fill="none">
  <g clip-path="url(#clip0_5101_141265)">
    <path d="M10.5 20C13.1522 20 15.6957 18.9464 17.5711 17.0711C19.4464 15.1957 20.5 12.6522 20.5 10C20.5 7.34784 19.4464 4.8043 17.5711 2.92893C15.6957 1.05357 13.1522 0 10.5 0C7.84784 0 5.3043 1.05357 3.42893 2.92893C1.55357 4.8043 0.5 7.34784 0.5 10C0.5 12.6522 1.55357 15.1957 3.42893 17.0711C5.3043 18.9464 7.84784 20 10.5 20ZM11.6625 8.235L10.4125 14.1163C10.325 14.5413 10.4488 14.7825 10.7925 14.7825C11.035 14.7825 11.4012 14.695 11.65 14.475L11.54 14.995C11.1812 15.4275 10.39 15.7425 9.70875 15.7425C8.83 15.7425 8.45625 15.215 8.69875 14.0938L9.62125 9.75875C9.70125 9.3925 9.62875 9.26 9.2625 9.17125L8.69875 9.07L8.80125 8.59375L11.6625 8.235ZM10.5 6.875C10.1685 6.875 9.85054 6.7433 9.61612 6.50888C9.3817 6.27446 9.25 5.95652 9.25 5.625C9.25 5.29348 9.3817 4.97554 9.61612 4.74112C9.85054 4.5067 10.1685 4.375 10.5 4.375C10.8315 4.375 11.1495 4.5067 11.3839 4.74112C11.6183 4.97554 11.75 5.29348 11.75 5.625C11.75 5.95652 11.6183 6.27446 11.3839 6.50888C11.1495 6.7433 10.8315 6.875 10.5 6.875Z" fill="#FF7A00"/>
  </g>
  <defs>
    <clipPath id="clip0_5101_141265">
      <rect width="20" height="20" fill="white" transform="translate(0.5)"/>
    </clipPath>
  </defs>
</svg>
