<svg width="21" height="20" viewBox="0 0 21 20" fill="none" xmlns="http://www.w3.org/2000/svg">
<rect x="0.5" width="20" height="20" rx="10" fill="#FF7A00"/>
<path d="M10.4823 12.0298L7.64516 9.73356C7.57833 9.68905 7.52295 9.62567 7.48448 9.54968C7.44601 9.47369 7.42578 9.38771 7.42578 9.30021C7.42578 9.21272 7.44601 9.12674 7.48448 9.05074C7.52295 8.97475 7.57833 8.91137 7.64516 8.86686L10.4823 6.5692C10.5499 6.52436 10.6269 6.50049 10.7054 6.50001C10.7838 6.49953 10.861 6.52246 10.9291 6.56647C10.9971 6.61048 11.0536 6.674 11.0929 6.75059C11.1321 6.82718 11.1527 6.9141 11.1525 7.00255V7.89935C12.0841 7.89935 14.879 7.89935 15.5001 13.5C13.9474 10.3496 11.1525 10.6997 11.1525 10.6997V11.5965C11.1525 11.9885 10.7761 12.2252 10.4823 12.0305V12.0298Z" fill="white"/>
<path d="M8.74996 6.7044C8.77423 6.74143 8.79179 6.78349 8.80162 6.82818C8.81145 6.87287 8.81336 6.9193 8.80724 6.96482C8.80113 7.01035 8.7871 7.05406 8.76598 7.09346C8.74485 7.13287 8.71704 7.16719 8.68412 7.19446L6.1923 9.2611C6.1839 9.26812 6.1752 9.27466 6.16621 9.2807C6.15271 9.28985 6.14153 9.30278 6.13377 9.31823C6.12602 9.33369 6.12194 9.35115 6.12194 9.36891C6.12194 9.38667 6.12602 9.40412 6.13377 9.41958C6.14153 9.43504 6.15271 9.44797 6.16621 9.45712C6.17519 9.46316 6.1839 9.4697 6.1923 9.47672L8.68412 11.5448C8.71777 11.5717 8.74633 11.6058 8.76813 11.6453C8.78993 11.6848 8.80453 11.7288 8.81109 11.7747C8.81764 11.8206 8.81601 11.8675 8.8063 11.9127C8.79659 11.9579 8.77898 12.0005 8.75452 12.0379C8.73005 12.0753 8.69921 12.1069 8.6638 12.1308C8.62839 12.1546 8.58911 12.1703 8.54827 12.1768C8.50743 12.1834 8.46584 12.1807 8.42593 12.1689C8.38602 12.1572 8.34858 12.1366 8.31582 12.1083L5.83517 10.0508C5.73261 9.97863 5.64804 9.87824 5.5894 9.75907C5.53077 9.63991 5.5 9.50588 5.5 9.36961C5.5 9.23334 5.53077 9.09931 5.5894 8.98014C5.64804 8.86097 5.73261 8.76059 5.83517 8.68843L8.31582 6.63019C8.38212 6.57515 8.46511 6.55205 8.54652 6.56597C8.62793 6.57989 8.70111 6.62968 8.74996 6.7044Z" fill="white"/>
</svg>
