<svg xmlns="http://www.w3.org/2000/svg" width="21" height="20" viewBox="0 0 21 20" fill="none">
  <g clip-path="url(#clip0_5887_103284)">
    <path d="M3.625 1.25C3.29348 1.25 2.97554 1.3817 2.74112 1.61612C2.5067 1.85054 2.375 2.16848 2.375 2.5V3.75C2.375 4.08152 2.5067 4.39946 2.74112 4.63388C2.97554 4.8683 3.29348 5 3.625 5H4.25V16.25C4.25 16.913 4.51339 17.5489 4.98223 18.0178C5.45107 18.4866 6.08696 18.75 6.75 18.75H14.25C14.913 18.75 15.5489 18.4866 16.0178 18.0178C16.4866 17.5489 16.75 16.913 16.75 16.25V5H17.375C17.7065 5 18.0245 4.8683 18.2589 4.63388C18.4933 4.39946 18.625 4.08152 18.625 3.75V2.5C18.625 2.16848 18.4933 1.85054 18.2589 1.61612C18.0245 1.3817 17.7065 1.25 17.375 1.25H13C13 0.918479 12.8683 0.600537 12.6339 0.366117C12.3995 0.131696 12.0815 0 11.75 0L9.25 0C8.91848 0 8.60054 0.131696 8.36612 0.366117C8.1317 0.600537 8 0.918479 8 1.25H3.625ZM7.375 6.25C7.54076 6.25 7.69973 6.31585 7.81694 6.43306C7.93415 6.55027 8 6.70924 8 6.875V15.625C8 15.7908 7.93415 15.9497 7.81694 16.0669C7.69973 16.1842 7.54076 16.25 7.375 16.25C7.20924 16.25 7.05027 16.1842 6.93306 16.0669C6.81585 15.9497 6.75 15.7908 6.75 15.625V6.875C6.75 6.70924 6.81585 6.55027 6.93306 6.43306C7.05027 6.31585 7.20924 6.25 7.375 6.25ZM10.5 6.25C10.6658 6.25 10.8247 6.31585 10.9419 6.43306C11.0592 6.55027 11.125 6.70924 11.125 6.875V15.625C11.125 15.7908 11.0592 15.9497 10.9419 16.0669C10.8247 16.1842 10.6658 16.25 10.5 16.25C10.3342 16.25 10.1753 16.1842 10.0581 16.0669C9.94085 15.9497 9.875 15.7908 9.875 15.625V6.875C9.875 6.70924 9.94085 6.55027 10.0581 6.43306C10.1753 6.31585 10.3342 6.25 10.5 6.25ZM14.25 6.875V15.625C14.25 15.7908 14.1842 15.9497 14.0669 16.0669C13.9497 16.1842 13.7908 16.25 13.625 16.25C13.4592 16.25 13.3003 16.1842 13.1831 16.0669C13.0658 15.9497 13 15.7908 13 15.625V6.875C13 6.70924 13.0658 6.55027 13.1831 6.43306C13.3003 6.31585 13.4592 6.25 13.625 6.25C13.7908 6.25 13.9497 6.31585 14.0669 6.43306C14.1842 6.55027 14.25 6.70924 14.25 6.875Z" fill="#FF7A00"/>
  </g>
  <defs>
    <clipPath id="clip0_5887_103284">
      <rect width="20" height="20" fill="white" transform="translate(0.5)"/>
    </clipPath>
  </defs>
</svg>
