<svg xmlns="http://www.w3.org/2000/svg" width="21" height="20" viewBox="0 0 21 20" fill="none">
  <g clip-path="url(#clip0_5101_141252)">
    <path d="M20.5 10C20.5 12.6522 19.4464 15.1957 17.5711 17.0711C15.6957 18.9464 13.1522 20 10.5 20C7.84784 20 5.3043 18.9464 3.42893 17.0711C1.55357 15.1957 0.5 12.6522 0.5 10C0.5 7.34784 1.55357 4.8043 3.42893 2.92893C5.3043 1.05357 7.84784 0 10.5 0C13.1522 0 15.6957 1.05357 17.5711 2.92893C19.4464 4.8043 20.5 7.34784 20.5 10ZM7.1925 5.8075C7.07514 5.69014 6.91597 5.62421 6.75 5.62421C6.58403 5.62421 6.42486 5.69014 6.3075 5.8075C6.19014 5.92486 6.12421 6.08403 6.12421 6.25C6.12421 6.41597 6.19014 6.57514 6.3075 6.6925L9.61625 10L6.3075 13.3075C6.24939 13.3656 6.20329 13.4346 6.17185 13.5105C6.1404 13.5864 6.12421 13.6678 6.12421 13.75C6.12421 13.8322 6.1404 13.9136 6.17185 13.9895C6.20329 14.0654 6.24939 14.1344 6.3075 14.1925C6.42486 14.3099 6.58403 14.3758 6.75 14.3758C6.83218 14.3758 6.91356 14.3596 6.98948 14.3282C7.0654 14.2967 7.13439 14.2506 7.1925 14.1925L10.5 10.8837L13.8075 14.1925C13.8656 14.2506 13.9346 14.2967 14.0105 14.3282C14.0864 14.3596 14.1678 14.3758 14.25 14.3758C14.3322 14.3758 14.4136 14.3596 14.4895 14.3282C14.5654 14.2967 14.6344 14.2506 14.6925 14.1925C14.7506 14.1344 14.7967 14.0654 14.8282 13.9895C14.8596 13.9136 14.8758 13.8322 14.8758 13.75C14.8758 13.6678 14.8596 13.5864 14.8282 13.5105C14.7967 13.4346 14.7506 13.3656 14.6925 13.3075L11.3837 10L14.6925 6.6925C14.7506 6.63439 14.7967 6.5654 14.8282 6.48948C14.8596 6.41356 14.8758 6.33218 14.8758 6.25C14.8758 6.16782 14.8596 6.08644 14.8282 6.01052C14.7967 5.9346 14.7506 5.86561 14.6925 5.8075C14.6344 5.74939 14.5654 5.70329 14.4895 5.67185C14.4136 5.6404 14.3322 5.62421 14.25 5.62421C14.1678 5.62421 14.0864 5.6404 14.0105 5.67185C13.9346 5.70329 13.8656 5.74939 13.8075 5.8075L10.5 9.11625L7.1925 5.8075Z" fill="#FF7A00"/>
  </g>
  <defs>
    <clipPath id="clip0_5101_141252">
      <rect width="20" height="20" fill="white" transform="translate(0.5)"/>
    </clipPath>
  </defs>
</svg>
