<svg width="21" height="20" viewBox="0 0 21 20" fill="none" xmlns="http://www.w3.org/2000/svg">
<g clip-path="url(#clip0_4853_141582)">
<path d="M0.490234 0.625C0.490234 0.45924 0.556082 0.300269 0.673293 0.183058C0.790503 0.065848 0.949474 0 1.11523 0L4.86523 0C5.03099 0 5.18997 0.065848 5.30718 0.183058C5.42439 0.300269 5.49023 0.45924 5.49023 0.625C5.49023 0.79076 5.42439 0.949732 5.30718 1.06694C5.18997 1.18415 5.03099 1.25 4.86523 1.25H1.74023V4.375C1.74023 4.54076 1.67439 4.69973 1.55718 4.81694C1.43997 4.93415 1.28099 5 1.11523 5C0.949474 5 0.790503 4.93415 0.673293 4.81694C0.556082 4.69973 0.490234 4.54076 0.490234 4.375V0.625ZM15.4902 0.625C15.4902 0.45924 15.5561 0.300269 15.6733 0.183058C15.7905 0.065848 15.9495 0 16.1152 0L19.8652 0C20.031 0 20.19 0.065848 20.3072 0.183058C20.4244 0.300269 20.4902 0.45924 20.4902 0.625V4.375C20.4902 4.54076 20.4244 4.69973 20.3072 4.81694C20.19 4.93415 20.031 5 19.8652 5C19.6995 5 19.5405 4.93415 19.4233 4.81694C19.3061 4.69973 19.2402 4.54076 19.2402 4.375V1.25H16.1152C15.9495 1.25 15.7905 1.18415 15.6733 1.06694C15.5561 0.949732 15.4902 0.79076 15.4902 0.625ZM1.11523 15C1.28099 15 1.43997 15.0658 1.55718 15.1831C1.67439 15.3003 1.74023 15.4592 1.74023 15.625V18.75H4.86523C5.03099 18.75 5.18997 18.8158 5.30718 18.9331C5.42439 19.0503 5.49023 19.2092 5.49023 19.375C5.49023 19.5408 5.42439 19.6997 5.30718 19.8169C5.18997 19.9342 5.03099 20 4.86523 20H1.11523C0.949474 20 0.790503 19.9342 0.673293 19.8169C0.556082 19.6997 0.490234 19.5408 0.490234 19.375V15.625C0.490234 15.4592 0.556082 15.3003 0.673293 15.1831C0.790503 15.0658 0.949474 15 1.11523 15ZM19.8652 15C20.031 15 20.19 15.0658 20.3072 15.1831C20.4244 15.3003 20.4902 15.4592 20.4902 15.625V19.375C20.4902 19.5408 20.4244 19.6997 20.3072 19.8169C20.19 19.9342 20.031 20 19.8652 20H16.1152C15.9495 20 15.7905 19.9342 15.6733 19.8169C15.5561 19.6997 15.4902 19.5408 15.4902 19.375C15.4902 19.2092 15.5561 19.0503 15.6733 18.9331C15.7905 18.8158 15.9495 18.75 16.1152 18.75H19.2402V15.625C19.2402 15.4592 19.3061 15.3003 19.4233 15.1831C19.5405 15.0658 19.6995 15 19.8652 15ZM5.49023 5H6.74023V6.25H5.49023V5Z" fill="black"/>
<path d="M9.24023 2.5H2.99023V8.75H9.24023V2.5ZM4.24023 3.75H7.99023V7.5H4.24023V3.75ZM6.74023 13.75H5.49023V15H6.74023V13.75Z" fill="black"/>
<path d="M9.24023 11.25H2.99023V17.5H9.24023V11.25ZM4.24023 12.5H7.99023V16.25H4.24023V12.5ZM14.2402 5H15.4902V6.25H14.2402V5Z" fill="black"/>
<path d="M11.7402 2.5H17.9902V8.75H11.7402V2.5ZM12.9902 3.75V7.5H16.7402V3.75H12.9902ZM10.4902 10V12.5H11.7402V13.75H10.4902V15H12.9902V12.5H14.2402V15H15.4902V13.75H17.9902V12.5H14.2402V10H10.4902ZM12.9902 12.5H11.7402V11.25H12.9902V12.5ZM17.9902 15H16.7402V16.25H14.2402V17.5H17.9902V15ZM12.9902 17.5V16.25H10.4902V17.5H12.9902Z" fill="black"/>
<path d="M15.4902 11.25H17.9902V10H15.4902V11.25Z" fill="black"/>
</g>
<defs>
<clipPath id="clip0_4853_141582">
<rect width="20" height="20" fill="white" transform="translate(0.490234)"/>
</clipPath>
</defs>
</svg>
